<?xml version="1.0" encoding="utf-8"?>
<!-- Generator: Adobe Illustrator 24.1.0, SVG Export Plug-In . SVG Version: 6.00 Build 0)  -->
<svg version="1.1" id="Layer_1" xmlns="http://www.w3.org/2000/svg" xmlns:xlink="http://www.w3.org/1999/xlink" x="0px" y="0px"
	 viewBox="0 0 368.5 226.77" style="enable-background:new 0 0 368.5 226.77;" xml:space="preserve">
<style type="text/css">
	.st0{fill:#012939;}
</style>
<g>
	<path class="st0" d="M47.71,124.09c6.94,0.34,6.16,1.36,6.16,7.63v37.57c0,6.02,0.83,7.45-6.16,7.62v1.6h26.3
		c18.79,0,20.48-11.67,20.48-14.89c0-8.87-6.77-12.94-14.14-14.47v-0.17c3.81-0.93,11.25-2.79,11.25-12.18
		c0-13.11-14.81-14.3-22.17-14.3H47.71V124.09z M62.49,150.92c8.12,0,10.83,0.43,13.71,1.27c4.4,1.36,8.55,4.15,8.55,11.08
		c0,11.34-10.24,12.11-15.83,12.11c-4.91,0-6.43-0.34-6.43-3.47V150.92z M62.49,128.15c0-1.27,0.17-2.45,1.86-2.45
		c0.85,0,2.04-0.09,3.81-0.09c6.01,0,14.81,1.61,14.81,11.69c0,10.07-10.07,10.24-12.44,10.24l-8.04,0.08V128.15z"/>
	<path class="st0" d="M129.77,179.69c17.02,0,30.74-11.09,30.74-29.1c0-19.46-15.32-29.27-30.74-29.27
		c-15.41,0-30.74,9.81-30.74,29.27C99.04,168.6,112.76,179.69,129.77,179.69 M129.77,176.64c-10.43,0-20.02-7.53-20.02-26.13
		c0-19.3,10.44-26.15,20.02-26.15c9.59,0,20.02,6.85,20.02,26.15C149.79,169.11,140.21,176.64,129.77,176.64"/>
	<path class="st0" d="M223.63,122.5h-18.15v1.61c6.38,0.42,7.06,1.1,7.06,10.82v28.27h-0.2l-35.98-40.7h-14.12v1.61
		c3.76,0,3.29,0.42,7.15,4.66v37.3c0,9.14-0.01,10.39-7.15,10.83v1.6h18.16v-1.6c-6.87-0.27-6.86-2.13-6.86-10.83v-32.98h0.18
		l41.36,46.34h1.6v-44.49c0-9.89,1.05-10.23,6.97-10.82V122.5z"/>
	<path class="st0" d="M228.83,178.5h24.72c28.77,0,36.19-16.58,36.19-27.82c0-18.96-14.95-28.17-37.51-28.17h-23.41v1.61
		c7.24,0.51,6.3,1.35,6.3,7.61v37.57c0,5.92,0.84,7.27-6.3,7.61V178.5z M244.71,128.94c0-1.69,0-3.31,4.43-3.31
		c11.84,0,17.1,2.29,21.61,5.92c6.48,5.25,8.73,12.1,8.73,19.2c0,24.62-23.12,24.62-29.13,24.62c-4.51,0-5.64-0.6-5.64-3.47V128.94z
		"/>
</g>
<g>
	<path class="st0" d="M120.07,48.22h-16.49v1.58c2.83,0.25,5.74,0.58,5.74,3.84c0,1.75-0.66,4.24-1.33,5.99L97.58,87.87l-11-28.41
		c-1.25-3.25-2.25-5.08-2.25-6.49c0-3.01,3.83-3.17,6.42-3.17v-1.58H68.51v1.58c4.42,0.08,5.66,0.58,8.41,7.5l2.75,6.83l-8.91,23.48
		l-12-31.32c-0.41-1.08-0.91-2.5-0.91-3.67c0-2.17,1.67-2.67,5.41-2.83v-1.58h-20.4v1.58c4.75,0.42,5.91,2.83,8.58,9.75
		c3.16,8.33,11.82,31.99,16.07,44.72h1.25l12.82-35.22c3.58,9.08,10.42,26.56,13.33,35.22h1.25c4.92-16.07,11.58-33.9,17.33-49.38
		c1.17-3.25,2.49-4.42,6.57-5.08V48.22z"/>
	<path class="st0" d="M125.29,104.27h23.98v-1.61c-6.96-0.17-7.25-1.01-7.25-7.61V57.48c0-6.75,0.39-7.35,7.25-7.61v-1.61h-23.98
		v1.61c7.8,0.35,7.14,1.35,7.14,7.61v37.57c0,6,0.84,7.44-7.14,7.61V104.27z"/>
	<path class="st0" d="M176.97,48.27h-22.56v1.61c5.91,0.43,6.2,0.93,6.2,7.61v37.57c0,6.52-0.19,7.27-6.2,7.61v1.6h45.04l0.92-14.73
		h-2.18c-1.62,9.93-0.91,11.43-18.5,11.43c-7.81,0-9.48-0.1-9.48-3.49v-40c0-6.67,0.37-7.26,6.76-7.61V48.27z"/>
	<path class="st0" d="M228.09,48.27h-22.56v1.61c5.91,0.43,6.2,0.93,6.2,7.61v37.57c0,6.52-0.19,7.27-6.2,7.61v1.6h45.04l0.92-14.73
		h-2.18c-1.62,9.93-0.91,11.43-18.5,11.43c-7.81,0-9.49-0.1-9.49-3.49v-40c0-6.67,0.37-7.26,6.76-7.61V48.27z"/>
	<path class="st0" d="M256.67,104.27h23.98v-1.61c-6.95-0.17-7.24-1.01-7.24-7.61V57.48c0-6.75,0.38-7.35,7.24-7.61v-1.61h-23.98
		v1.61c7.81,0.35,7.15,1.35,7.15,7.61v37.57c0,6,0.85,7.44-7.15,7.61V104.27z"/>
	<path class="st0" d="M294.25,58.41c0-5.25,4.79-7.87,9.5-7.87c8.82,0,15.17,5.93,16.05,12.36h2.23l-0.95-14.7h-1.89
		c-0.38,0.86-1.17,1.75-2.95,1.75c-2.34,0-7.42-2.87-13.06-2.87c-8.46,0-17.02,4.73-17.02,14.38c0,8.37,6.03,12.1,14.67,16.59
		c13.82,7.27,15.32,10.13,15.32,14.97c0,4.57-3.77,9.38-11.28,9.38c-10.87,0-15.94-6.94-16.88-12.87h-2.24l0.9,14.7h1.93
		c0.39-0.92,1.24-1.67,2.66-1.67c2.82,0,7.43,2.88,14.57,2.88c13.44,0,19.83-8.11,19.83-15.3C325.64,72.8,294.25,71.11,294.25,58.41
		"/>
</g>
</svg>
