<?xml version="1.0" encoding="utf-8"?>
<!-- Generator: Adobe Illustrator 24.3.0, SVG Export Plug-In . SVG Version: 6.00 Build 0)  -->
<svg version="1.1" id="Layer_1" xmlns="http://www.w3.org/2000/svg" xmlns:xlink="http://www.w3.org/1999/xlink" x="0px" y="0px"
	 viewBox="0 0 282.8 132.6" style="enable-background:new 0 0 282.8 132.6;" xml:space="preserve">
<style type="text/css">
	.st0{fill:#ffffff;}
</style>
<g>
	<path class="st0" d="M4.9,77c6.9,0.3,6.2,1.4,6.2,7.6v37.6c0,6,0.8,7.4-6.2,7.6v1.6h26.3c18.8,0,20.5-11.7,20.5-14.9
		c0-8.9-6.8-12.9-14.1-14.5v-0.2c3.8-0.9,11.2-2.8,11.2-12.2c0-13.1-14.8-14.3-22.2-14.3H4.9V77z M19.6,103.8
		c8.1,0,10.8,0.4,13.7,1.3c4.4,1.4,8.6,4.1,8.6,11.1c0,11.3-10.2,12.1-15.8,12.1c-4.9,0-6.4-0.3-6.4-3.5
		C19.6,124.8,19.6,103.8,19.6,103.8z M19.6,81.1c0-1.3,0.2-2.4,1.9-2.4c0.8,0,2-0.1,3.8-0.1c6,0,14.8,1.6,14.8,11.7
		c0,10.1-10.1,10.2-12.4,10.2l-8,0.1L19.6,81.1L19.6,81.1z"/>
	<path class="st0" d="M86.9,132.6c17,0,30.7-11.1,30.7-29.1c0-19.5-15.3-29.3-30.7-29.3c-15.4,0-30.7,9.8-30.7,29.3
		C56.2,121.5,69.9,132.6,86.9,132.6 M86.9,129.6c-10.4,0-20-7.5-20-26.1c0-19.3,10.4-26.2,20-26.2c9.6,0,20,6.8,20,26.2
		C106.9,122,97.4,129.6,86.9,129.6"/>
	<path class="st0" d="M180.8,75.4h-18.1V77c6.4,0.4,7.1,1.1,7.1,10.8v28.3h-0.2l-36-40.7h-14.1V77c3.8,0,3.3,0.4,7.1,4.7V119
		c0,9.1,0,10.4-7.1,10.8v1.6h18.2v-1.6c-6.9-0.3-6.9-2.1-6.9-10.8V86h0.2l41.4,46.3h1.6V87.9c0-9.9,1-10.2,7-10.8L180.8,75.4
		L180.8,75.4z"/>
	<path class="st0" d="M186,131.4h24.7c28.8,0,36.2-16.6,36.2-27.8c0-19-15-28.2-37.5-28.2H186V77c7.2,0.5,6.3,1.3,6.3,7.6v37.6
		c0,5.9,0.8,7.3-6.3,7.6L186,131.4L186,131.4z M201.9,81.9c0-1.7,0-3.3,4.4-3.3c11.8,0,17.1,2.3,21.6,5.9c6.5,5.2,8.7,12.1,8.7,19.2
		c0,24.6-23.1,24.6-29.1,24.6c-4.5,0-5.6-0.6-5.6-3.5V81.9z"/>
</g>
<g>
	<path class="st0" d="M77.2,1.1H60.7v1.6c2.8,0.2,5.7,0.6,5.7,3.8c0,1.8-0.7,4.2-1.3,6L54.7,40.8l-11-28.4c-1.2-3.2-2.2-5.1-2.2-6.5
		c0-3,3.8-3.2,6.4-3.2V1.1H25.7v1.6c4.4,0.1,5.7,0.6,8.4,7.5l2.8,6.8l-8.9,23.5l-12-31.3C15.5,8.1,15,6.7,15,5.5
		c0-2.2,1.7-2.7,5.4-2.8V1.1H0v1.6c4.8,0.4,5.9,2.8,8.6,9.8c3.2,8.3,11.8,32,16.1,44.7h1.2L38.7,22c3.6,9.1,10.4,26.6,13.3,35.2h1.2
		c4.9-16.1,11.6-33.9,17.3-49.4c1.2-3.2,2.5-4.4,6.6-5.1L77.2,1.1L77.2,1.1z"/>
	<path class="st0" d="M82.4,57.2h24v-1.6c-7-0.2-7.2-1-7.2-7.6V10.4c0-6.8,0.4-7.3,7.2-7.6V1.2h-24v1.6c7.8,0.3,7.1,1.3,7.1,7.6V48
		c0,6,0.8,7.4-7.1,7.6C82.4,55.6,82.4,57.2,82.4,57.2z"/>
	<path class="st0" d="M134.1,1.2h-22.6v1.6c5.9,0.4,6.2,0.9,6.2,7.6V48c0,6.5-0.2,7.3-6.2,7.6v1.6h45l0.9-14.7h-2.2
		c-1.6,9.9-0.9,11.4-18.5,11.4c-7.8,0-9.5-0.1-9.5-3.5v-40c0-6.7,0.4-7.3,6.8-7.6V1.2L134.1,1.2z"/>
	<path class="st0" d="M185.2,1.2h-22.6v1.6c5.9,0.4,6.2,0.9,6.2,7.6V48c0,6.5-0.2,7.3-6.2,7.6v1.6h45l0.9-14.7h-2.2
		c-1.6,9.9-0.9,11.4-18.5,11.4c-7.8,0-9.5-0.1-9.5-3.5v-40c0-6.7,0.4-7.3,6.8-7.6L185.2,1.2L185.2,1.2z"/>
	<path class="st0" d="M213.8,57.2h24v-1.6c-7-0.2-7.2-1-7.2-7.6V10.4c0-6.8,0.4-7.3,7.2-7.6V1.2h-24v1.6c7.8,0.3,7.1,1.3,7.1,7.6V48
		c0,6,0.9,7.4-7.1,7.6V57.2z"/>
	<path class="st0" d="M251.4,11.3c0-5.2,4.8-7.9,9.5-7.9c8.8,0,15.2,5.9,16,12.4h2.2l-1-14.7h-1.9c-0.4,0.9-1.2,1.8-3,1.8
		C271,2.9,266,0,260.3,0c-8.5,0-17,4.7-17,14.4c0,8.4,6,12.1,14.7,16.6c13.8,7.3,15.3,10.1,15.3,15c0,4.6-3.8,9.4-11.3,9.4
		c-10.9,0-15.9-6.9-16.9-12.9h-2.2l0.9,14.7h1.9c0.4-0.9,1.2-1.7,2.7-1.7c2.8,0,7.4,2.9,14.6,2.9c13.4,0,19.8-8.1,19.8-15.3
		C282.8,25.7,251.4,24,251.4,11.3"/>
</g>
</svg>
