<svg enable-background="new 0 0 282.8 132.6" viewBox="0 0 282.8 132.6" xmlns="http://www.w3.org/2000/svg"><g fill="#012939"><path d="m4.9 77c6.9.3 6.2 1.4 6.2 7.6v37.6c0 6 .8 7.4-6.2 7.6v1.6h26.3c18.8 0 20.5-11.7 20.5-14.9 0-8.9-6.8-12.9-14.1-14.5v-.2c3.8-.9 11.2-2.8 11.2-12.2 0-13.1-14.8-14.3-22.2-14.3h-21.7zm14.7 26.8c8.1 0 10.8.4 13.7 1.3 4.4 1.4 8.6 4.1 8.6 11.1 0 11.3-10.2 12.1-15.8 12.1-4.9 0-6.4-.3-6.4-3.5-.1 0-.1-21-.1-21zm0-22.7c0-1.3.2-2.4 1.9-2.4.8 0 2-.1 3.8-.1 6 0 14.8 1.6 14.8 11.7s-10.1 10.2-12.4 10.2l-8 .1z"/><path d="m86.9 132.6c17 0 30.7-11.1 30.7-29.1 0-19.5-15.3-29.3-30.7-29.3s-30.7 9.8-30.7 29.3c0 18 13.7 29.1 30.7 29.1m0-3c-10.4 0-20-7.5-20-26.1 0-19.3 10.4-26.2 20-26.2s20 6.8 20 26.2c0 18.5-9.5 26.1-20 26.1"/><path d="m180.8 75.4h-18.1v1.6c6.4.4 7.1 1.1 7.1 10.8v28.3h-.2l-36-40.7h-14.1v1.6c3.8 0 3.3.4 7.1 4.7v37.3c0 9.1 0 10.4-7.1 10.8v1.6h18.2v-1.6c-6.9-.3-6.9-2.1-6.9-10.8v-33h.2l41.4 46.3h1.6v-44.4c0-9.9 1-10.2 7-10.8z"/><path d="m186 131.4h24.7c28.8 0 36.2-16.6 36.2-27.8 0-19-15-28.2-37.5-28.2h-23.4v1.6c7.2.5 6.3 1.3 6.3 7.6v37.6c0 5.9.8 7.3-6.3 7.6zm15.9-49.5c0-1.7 0-3.3 4.4-3.3 11.8 0 17.1 2.3 21.6 5.9 6.5 5.2 8.7 12.1 8.7 19.2 0 24.6-23.1 24.6-29.1 24.6-4.5 0-5.6-.6-5.6-3.5z"/><path d="m77.2 1.1h-16.5v1.6c2.8.2 5.7.6 5.7 3.8 0 1.8-.7 4.2-1.3 6l-10.4 28.3-11-28.4c-1.2-3.2-2.2-5.1-2.2-6.5 0-3 3.8-3.2 6.4-3.2v-1.6h-22.2v1.6c4.4.1 5.7.6 8.4 7.5l2.8 6.8-8.9 23.5-12-31.3c-.5-1.1-1-2.5-1-3.7 0-2.2 1.7-2.7 5.4-2.8v-1.6h-20.4v1.6c4.8.4 5.9 2.8 8.6 9.8 3.2 8.3 11.8 32 16.1 44.7h1.2l12.8-35.2c3.6 9.1 10.4 26.6 13.3 35.2h1.2c4.9-16.1 11.6-33.9 17.3-49.4 1.2-3.2 2.5-4.4 6.6-5.1z"/><path d="m82.4 57.2h24v-1.6c-7-.2-7.2-1-7.2-7.6v-37.6c0-6.8.4-7.3 7.2-7.6v-1.6h-24v1.6c7.8.3 7.1 1.3 7.1 7.6v37.6c0 6 .8 7.4-7.1 7.6z"/><path d="m134.1 1.2h-22.6v1.6c5.9.4 6.2.9 6.2 7.6v37.6c0 6.5-.2 7.3-6.2 7.6v1.6h45l.9-14.7h-2.2c-1.6 9.9-.9 11.4-18.5 11.4-7.8 0-9.5-.1-9.5-3.5v-40c0-6.7.4-7.3 6.8-7.6v-1.6z"/><path d="m185.2 1.2h-22.6v1.6c5.9.4 6.2.9 6.2 7.6v37.6c0 6.5-.2 7.3-6.2 7.6v1.6h45l.9-14.7h-2.2c-1.6 9.9-.9 11.4-18.5 11.4-7.8 0-9.5-.1-9.5-3.5v-40c0-6.7.4-7.3 6.8-7.6z"/><path d="m213.8 57.2h24v-1.6c-7-.2-7.2-1-7.2-7.6v-37.6c0-6.8.4-7.3 7.2-7.6v-1.6h-24v1.6c7.8.3 7.1 1.3 7.1 7.6v37.6c0 6 .9 7.4-7.1 7.6z"/><path d="m251.4 11.3c0-5.2 4.8-7.9 9.5-7.9 8.8 0 15.2 5.9 16 12.4h2.2l-1-14.7h-1.9c-.4.9-1.2 1.8-3 1.8-2.2 0-7.2-2.9-12.9-2.9-8.5 0-17 4.7-17 14.4 0 8.4 6 12.1 14.7 16.6 13.8 7.3 15.3 10.1 15.3 15 0 4.6-3.8 9.4-11.3 9.4-10.9 0-15.9-6.9-16.9-12.9h-2.2l.9 14.7h1.9c.4-.9 1.2-1.7 2.7-1.7 2.8 0 7.4 2.9 14.6 2.9 13.4 0 19.8-8.1 19.8-15.3 0-17.4-31.4-19.1-31.4-31.8"/></g></svg>