<?xml version="1.0" standalone="no"?>
<!DOCTYPE svg PUBLIC "-//W3C//DTD SVG 20010904//EN"
 "http://www.w3.org/TR/2001/REC-SVG-20010904/DTD/svg10.dtd">
<svg version="1.0" xmlns="http://www.w3.org/2000/svg"
 width="1080.000000pt" height="1080.000000pt" viewBox="0 0 1080.000000 1080.000000"
 preserveAspectRatio="xMidYMid meet">
<metadata>
Created by potrace 1.11, written by Peter Selinger 2001-2013
</metadata>
<g transform="translate(0.000000,1080.000000) scale(0.100000,-0.100000)"
fill="#000000" stroke="none">
<path d="M2150 7694 c0 -58 2 -64 23 -69 12 -3 54 -11 92 -19 197 -40 319
-150 439 -395 76 -156 253 -615 556 -1446 50 -137 108 -297 130 -355 82 -224
210 -580 210 -586 0 -3 6 -20 14 -37 16 -35 68 -179 96 -267 10 -30 23 -66 28
-80 6 -14 25 -65 42 -115 17 -49 34 -97 37 -105 3 -8 7 -19 9 -25 1 -5 24 -68
49 -140 98 -272 264 -752 316 -909 16 -50 34 -93 40 -97 7 -4 32 -6 57 -5 l44
1 30 80 c17 44 43 116 58 160 16 44 41 112 55 150 15 39 39 106 55 150 35 98
79 218 158 435 33 91 69 190 80 220 46 130 234 647 242 665 5 11 59 160 121
330 61 171 124 344 139 385 73 193 130 355 130 367 0 7 4 13 10 13 5 0 9 -3 8
-7 -1 -5 4 -19 9 -33 6 -14 63 -160 128 -325 64 -165 120 -309 125 -320 16
-36 119 -302 225 -580 25 -66 50 -129 55 -140 5 -11 26 -67 48 -125 84 -225
163 -436 172 -455 4 -11 13 -36 20 -55 7 -19 16 -44 21 -55 13 -28 218 -596
264 -730 21 -60 42 -115 47 -121 4 -6 30 -11 57 -11 l48 0 38 121 c126 408
367 1131 543 1631 33 94 63 179 67 190 4 11 10 29 15 40 4 11 56 155 115 320
106 296 122 342 248 685 36 96 122 330 192 520 289 786 300 813 379 898 54 59
160 120 241 138 11 3 54 12 95 22 l75 18 2 65 3 66 -695 0 -695 0 0 -67 0 -66
98 -12 c122 -14 141 -18 203 -42 92 -37 159 -108 174 -185 15 -80 5 -195 -30
-340 -31 -130 -44 -169 -130 -400 -15 -38 -41 -110 -59 -160 -95 -261 -749
-2032 -755 -2043 -4 -7 -34 57 -70 150 -34 90 -66 172 -71 183 -5 11 -37 92
-70 180 -34 88 -72 187 -85 220 -55 141 -576 1488 -608 1570 -18 50 -66 170
-106 268 -88 217 -109 285 -106 358 7 168 153 245 482 253 l48 1 3 66 3 66
-936 0 -935 0 0 -67 0 -67 49 0 c174 -3 285 -37 377 -116 68 -58 160 -220 249
-437 26 -63 53 -128 60 -145 19 -44 116 -285 131 -325 7 -19 26 -68 43 -108
l30 -72 -90 -238 c-50 -130 -117 -307 -149 -392 -32 -85 -63 -166 -69 -180 -9
-24 -69 -181 -323 -855 -102 -269 -128 -330 -128 -296 0 7 -48 138 -106 290
-58 152 -150 391 -204 531 -54 140 -141 370 -195 510 -53 140 -100 264 -106
275 -14 31 -355 925 -401 1050 -131 361 -66 476 281 500 47 4 92 8 99 11 9 3
12 22 10 66 l-3 63 -857 1 -858 1 0 -63z"/>
</g>
</svg>
